<svg width="187" height="36" viewBox="0 0 187 36" fill="none" xmlns="http://www.w3.org/2000/svg">
<path d="M16.5359 2C18.0755 -0.666667 21.9245 -0.666667 23.4641 2L39.0526 29C40.5922 31.6667 38.6677 35 35.5885 35H4.41154C1.33234 35 -0.59216 31.6667 0.947441 29L16.5359 2Z" fill="#31DAB5"/>
<path d="M58.8409 35H48.5284V5.90909H58.9261C61.8523 5.90909 64.3712 6.49148 66.483 7.65625C68.5947 8.81155 70.2188 10.4735 71.3551 12.642C72.5009 14.8106 73.0739 17.4053 73.0739 20.4261C73.0739 23.4564 72.5009 26.0606 71.3551 28.2386C70.2188 30.4167 68.5852 32.0881 66.4545 33.2528C64.3333 34.4176 61.7955 35 58.8409 35ZM54.679 29.7301H58.5852C60.4034 29.7301 61.9328 29.4081 63.1733 28.7642C64.4233 28.1108 65.3608 27.1023 65.9858 25.7386C66.6203 24.3655 66.9375 22.5947 66.9375 20.4261C66.9375 18.2765 66.6203 16.5199 65.9858 15.1562C65.3608 13.7926 64.428 12.7888 63.1875 12.1449C61.947 11.5009 60.4176 11.179 58.5994 11.179H54.679V29.7301ZM87.4595 35.4261C85.2152 35.4261 83.2834 34.9716 81.6641 34.0625C80.0542 33.1439 78.8137 31.8466 77.9425 30.1705C77.0713 28.4848 76.6357 26.4915 76.6357 24.1903C76.6357 21.946 77.0713 19.9763 77.9425 18.2812C78.8137 16.5862 80.04 15.2652 81.6214 14.3182C83.2124 13.3712 85.0779 12.8977 87.218 12.8977C88.6574 12.8977 89.9974 13.1297 91.2379 13.5938C92.4879 14.0483 93.5769 14.7348 94.505 15.6534C95.4425 16.572 96.1716 17.7273 96.6925 19.1193C97.2133 20.5019 97.4737 22.1212 97.4737 23.9773V25.6392H79.0504V21.8892H91.7777C91.7777 21.018 91.5883 20.2462 91.2095 19.5739C90.8307 18.9015 90.3052 18.3759 89.6328 17.9972C88.9699 17.6089 88.1982 17.4148 87.3175 17.4148C86.3989 17.4148 85.5845 17.6278 84.8743 18.054C84.1735 18.4706 83.6243 19.0341 83.2266 19.7443C82.8288 20.4451 82.6252 21.2263 82.6158 22.0881V25.6534C82.6158 26.733 82.8146 27.6657 83.2124 28.4517C83.6196 29.2377 84.1925 29.8438 84.9311 30.2699C85.6697 30.696 86.5457 30.9091 87.5589 30.9091C88.2313 30.9091 88.8468 30.8144 89.4055 30.625C89.9643 30.4356 90.4425 30.1515 90.8402 29.7727C91.2379 29.3939 91.541 28.9299 91.7493 28.3807L97.3459 28.75C97.0618 30.0947 96.4794 31.2689 95.5987 32.2727C94.7275 33.267 93.6006 34.0436 92.218 34.6023C90.8449 35.1515 89.2588 35.4261 87.4595 35.4261ZM107.474 5.90909V35H101.423V5.90909H107.474ZM123.926 13.1818V17.7273H110.787V13.1818H123.926ZM113.77 7.95455H119.821V28.2955C119.821 28.8542 119.906 29.2898 120.077 29.6023C120.247 29.9053 120.484 30.1184 120.787 30.2415C121.099 30.3646 121.459 30.4261 121.866 30.4261C122.151 30.4261 122.435 30.4025 122.719 30.3551C123.003 30.2983 123.221 30.2557 123.372 30.2273L124.324 34.7301C124.021 34.8248 123.595 34.9337 123.045 35.0568C122.496 35.1894 121.829 35.2699 121.043 35.2983C119.584 35.3551 118.306 35.161 117.207 34.7159C116.118 34.2708 115.271 33.5795 114.665 32.642C114.059 31.7045 113.76 30.5208 113.77 29.0909V7.95455ZM134.089 35.4119C132.697 35.4119 131.457 35.1705 130.368 34.6875C129.279 34.1951 128.417 33.4706 127.783 32.5142C127.158 31.5483 126.845 30.3456 126.845 28.9062C126.845 27.6941 127.068 26.6761 127.513 25.8523C127.958 25.0284 128.564 24.3655 129.331 23.8636C130.098 23.3617 130.969 22.983 131.945 22.7273C132.929 22.4716 133.962 22.2917 135.041 22.1875C136.31 22.0549 137.333 21.9318 138.109 21.8182C138.886 21.6951 139.449 21.5152 139.8 21.2784C140.15 21.0417 140.325 20.6913 140.325 20.2273V20.142C140.325 19.2424 140.041 18.5464 139.473 18.054C138.914 17.5616 138.119 17.3153 137.087 17.3153C135.998 17.3153 135.131 17.5568 134.487 18.0398C133.843 18.5133 133.417 19.1098 133.209 19.8295L127.612 19.375C127.896 18.0492 128.455 16.9034 129.288 15.9375C130.122 14.9621 131.196 14.214 132.513 13.6932C133.839 13.1629 135.373 12.8977 137.115 12.8977C138.327 12.8977 139.487 13.0398 140.595 13.3239C141.713 13.608 142.702 14.0483 143.564 14.6449C144.435 15.2415 145.122 16.0085 145.624 16.946C146.125 17.8741 146.376 18.9867 146.376 20.2841V35H140.638V31.9744H140.467C140.117 32.6562 139.648 33.2576 139.061 33.7784C138.474 34.2898 137.768 34.6922 136.945 34.9858C136.121 35.2699 135.169 35.4119 134.089 35.4119ZM135.822 31.2358C136.713 31.2358 137.499 31.0606 138.18 30.7102C138.862 30.3504 139.397 29.8674 139.786 29.2614C140.174 28.6553 140.368 27.9687 140.368 27.2017V24.8864C140.179 25.0095 139.918 25.1231 139.587 25.2273C139.265 25.322 138.9 25.4119 138.493 25.4972C138.086 25.5729 137.679 25.6439 137.271 25.7102C136.864 25.767 136.495 25.8191 136.163 25.8665C135.453 25.9706 134.833 26.1364 134.303 26.3636C133.772 26.5909 133.36 26.8987 133.067 27.2869C132.773 27.6657 132.626 28.1392 132.626 28.7074C132.626 29.5312 132.925 30.161 133.521 30.5966C134.127 31.0227 134.894 31.2358 135.822 31.2358ZM169.153 5.90909H175.304V24.8011C175.304 26.9223 174.797 28.7784 173.784 30.3693C172.78 31.9602 171.374 33.2008 169.565 34.0909C167.757 34.9716 165.65 35.4119 163.244 35.4119C160.83 35.4119 158.718 34.9716 156.909 34.0909C155.1 33.2008 153.694 31.9602 152.69 30.3693C151.687 28.7784 151.185 26.9223 151.185 24.8011V5.90909H157.335V24.2756C157.335 25.3835 157.577 26.3684 158.06 27.2301C158.552 28.0919 159.243 28.7689 160.134 29.2614C161.024 29.7538 162.061 30 163.244 30C164.438 30 165.474 29.7538 166.355 29.2614C167.245 28.7689 167.932 28.0919 168.415 27.2301C168.907 26.3684 169.153 25.3835 169.153 24.2756V5.90909ZM186.515 5.90909V35H180.364V5.90909H186.515Z" fill="white"/>
</svg>
